<?xml version="1.0" encoding="utf-8"?>
<!-- Generator: Adobe Illustrator 23.0.1, SVG Export Plug-In . SVG Version: 6.00 Build 0)  -->
<svg version="1.1" id="Layer_1" xmlns="http://www.w3.org/2000/svg" xmlns:xlink="http://www.w3.org/1999/xlink" x="0px" y="0px"
	 viewBox="0 0 80 80" style="enable-background:new 0 0 80 80;" xml:space="preserve">
<style type="text/css">
	.st0{fill:none;stroke:#FFFFFF;stroke-width:4;stroke-linecap:round;stroke-linejoin:round;stroke-miterlimit:10;}
</style>
<g>
	<g>
		<path class="st0" d="M46.17,26.36c0,8.5-2.25,16.47-6.17,23.36c-3.92-6.9-6.17-14.86-6.17-23.36S36.08,9.9,40,3
			c1.24,2.19,2.32,4.48,3.21,6.87 M45.35,17.56c0.05,0.27,0.1,0.53,0.14,0.8"/>
		<path class="st0" d="M51.19,32.92c5.49-5.49,12.08-9.18,19.07-11.1c-1.92,6.98-5.62,13.58-11.1,19.07s-12.08,9.18-19.07,11.1
			C42.01,45.01,45.7,38.41,51.19,32.92z"/>
		<path class="st0" d="M54.1,46.44c5.59-1.87,11.34-2.15,16.74-1.09c-3.68,4.1-8.43,7.34-14.02,9.21s-11.34,2.15-16.74,1.09
			C43.76,51.55,48.51,48.32,54.1,46.44z"/>
		<path class="st0" d="M52.43,58c4.09,1.63,7.49,4.24,10.06,7.45c-4.07,0.56-8.34,0.12-12.43-1.51S42.57,59.69,40,56.48
			C44.07,55.92,48.34,56.37,52.43,58z"/>
		<path class="st0" d="M39.92,51.99c-6.98-1.92-13.58-5.62-19.07-11.1S11.67,28.8,9.75,21.82c6.98,1.92,13.58,5.62,19.07,11.1
			S37.99,45.01,39.92,51.99z"/>
		<path class="st0" d="M39.92,55.66c-5.4,1.06-11.15,0.78-16.74-1.09s-10.34-5.11-14.02-9.21c5.4-1.06,11.15-0.78,16.74,1.09
			S36.24,51.55,39.92,55.66z"/>
		<path class="st0" d="M40,56.48c-2.57,3.21-5.97,5.82-10.06,7.45c-4.09,1.63-8.36,2.08-12.43,1.51c2.57-3.21,5.97-5.82,10.06-7.45
			S35.93,55.92,40,56.48z"/>
		<line class="st0" x1="39.92" y1="60.45" x2="39.92" y2="77"/>
	</g>
</g>
<g id="guides">
</g>
</svg>
