<?xml version="1.0" encoding="utf-8"?>
<!-- Generator: Adobe Illustrator 23.0.1, SVG Export Plug-In . SVG Version: 6.00 Build 0)  -->
<svg version="1.1" id="Layer_1" xmlns="http://www.w3.org/2000/svg" xmlns:xlink="http://www.w3.org/1999/xlink" x="0px" y="0px"
	 viewBox="0 0 434.4 83.76" style="enable-background:new 0 0 434.4 83.76;" xml:space="preserve">
<style type="text/css">
	.st0{fill:#1867A4;}
	.st1{fill:url(#SVGID_1_);}
	.st2{fill:#AAAAAA;}
	.st3{fill:#DCB317;}
	.st4{fill:url(#SVGID_2_);}
</style>
<g>
	<g>
		<path class="st0" d="M51.49,71.67c0.75,0.93,1.12,1.93,1.12,2.99c0,0.75-0.2,1.45-0.61,2.1c-0.41,0.65-0.95,1.17-1.63,1.54
			c-2.42,1.37-5.15,2.46-8.16,3.26c-3.02,0.81-5.99,1.21-8.91,1.21c-6.03,0-11.58-1.34-16.65-4.01C11.58,76.09,7.54,72.2,4.52,67.1
			C1.51,62,0,56.03,0,49.19c0-6.28,1.45-11.95,4.34-17.02c2.89-5.07,6.87-9.05,11.94-11.94c5.07-2.89,10.74-4.34,17.02-4.34
			c6.03,0,11.69,1.49,16.98,4.48c1.49,0.81,2.24,2.05,2.24,3.73c0,1.12-0.37,2.15-1.12,3.08c-0.75,1-1.77,1.49-3.08,1.49
			c-0.87,0-1.71-0.22-2.52-0.65c-3.86-2.18-8.02-3.26-12.5-3.26c-4.66,0-8.78,1.03-12.36,3.08c-3.58,2.05-6.36,4.93-8.35,8.63
			c-1.99,3.7-2.99,7.94-2.99,12.73c0,5.16,1.03,9.61,3.08,13.34c2.05,3.73,4.88,6.58,8.49,8.54C24.78,73.02,28.82,74,33.3,74
			c4.6,0,8.77-1.12,12.5-3.36c0.75-0.37,1.55-0.56,2.42-0.56C49.59,70.09,50.68,70.61,51.49,71.67z M113.43,76.06
			c0.19,0.56,0.28,1.15,0.28,1.77c0,1.24-0.42,2.27-1.26,3.08c-0.84,0.81-1.82,1.21-2.94,1.21c-0.87,0-1.66-0.27-2.38-0.79
			c-0.72-0.53-1.29-1.26-1.73-2.19l-5.78-13.71H70.8l-5.69,13.81c-0.31,0.93-0.83,1.65-1.54,2.15s-1.51,0.75-2.38,0.75
			c-1.31,0-2.3-0.34-2.99-1.03c-0.68-0.68-1.03-1.62-1.03-2.8c0-0.25,0.06-0.75,0.19-1.49l23.79-57.65
			c0.43-0.99,1.04-1.76,1.82-2.29c0.78-0.53,1.66-0.73,2.66-0.61c0.93,0,1.77,0.25,2.52,0.75c0.75,0.5,1.27,1.21,1.59,2.15
			L113.43,76.06z M96.08,56.93L85.16,30.81L74.34,56.93H96.08z M165.06,26.43c1.65,3.05,2.47,6.41,2.47,10.07
			c0,3.67-0.83,7.06-2.47,10.17c-1.65,3.11-3.87,5.57-6.67,7.37c-2.8,1.81-5.85,2.71-9.14,2.71h-17.54v20.62
			c0,1.25-0.41,2.3-1.21,3.17c-0.81,0.87-1.83,1.31-3.08,1.31c-1.31,0-2.35-0.42-3.12-1.26c-0.78-0.84-1.17-1.91-1.17-3.22V21.02
			c0-1.24,0.43-2.3,1.31-3.17c0.87-0.87,1.93-1.31,3.17-1.31h21.64c3.29,0,6.34,0.89,9.14,2.66
			C161.19,20.97,163.41,23.38,165.06,26.43z M158.58,36.5c0-3.17-0.92-5.86-2.75-8.07c-1.83-2.21-4.03-3.31-6.58-3.31h-17.54v23.13
			h17.54c1.68,0,3.23-0.54,4.66-1.63c1.43-1.09,2.57-2.53,3.4-4.34C158.16,40.48,158.58,38.56,158.58,36.5z M223.59,70.09
			c-0.87,0-1.68,0.19-2.42,0.56c-3.73,2.24-7.9,3.36-12.5,3.36c-4.48,0-8.52-0.98-12.13-2.94c-3.61-1.96-6.44-4.8-8.49-8.54
			c-2.05-3.73-3.08-8.18-3.08-13.34c0-4.79,0.99-9.03,2.99-12.73c1.99-3.7,4.77-6.58,8.35-8.63c3.58-2.05,7.7-3.08,12.36-3.08
			c4.48,0,8.64,1.09,12.5,3.26c0.81,0.44,1.65,0.65,2.52,0.65c1.31,0,2.33-0.5,3.08-1.49c0.75-0.93,1.12-1.96,1.12-3.08
			c0-1.68-0.75-2.92-2.24-3.73c-5.29-2.98-10.95-4.48-16.98-4.48c-6.28,0-11.96,1.45-17.02,4.34c-5.07,2.89-9.05,6.87-11.94,11.94
			c-2.89,5.07-4.34,10.74-4.34,17.02c0,6.84,1.51,12.81,4.52,17.91c3.02,5.1,7.06,8.99,12.13,11.66c5.07,2.67,10.62,4.01,16.65,4.01
			c2.92,0,5.89-0.41,8.91-1.21c3.02-0.81,5.74-1.9,8.16-3.26c0.68-0.37,1.23-0.89,1.63-1.54c0.4-0.65,0.61-1.35,0.61-2.1
			c0-1.06-0.37-2.05-1.12-2.99C226.05,70.61,224.96,70.09,223.59,70.09z M243.27,16.54c-1.37,0-2.49,0.44-3.36,1.31
			c-0.87,0.87-1.31,1.93-1.31,3.17v56.25c0,1.31,0.42,2.39,1.26,3.26c0.84,0.87,1.94,1.31,3.31,1.31c1.24,0,2.33-0.43,3.26-1.31
			c0.93-0.87,1.4-1.96,1.4-3.26V21.02c0-1.24-0.45-2.3-1.35-3.17C245.59,16.98,244.52,16.54,243.27,16.54z M397.39,17.8
			c-0.87-0.84-1.93-1.29-3.17-1.35c-1.49,0-2.74,0.68-3.73,2.05L368.1,51.99L345.99,18.5c-0.44-0.62-1.01-1.12-1.73-1.49
			s-1.45-0.56-2.19-0.56c-1.31,0-2.4,0.45-3.27,1.35c-0.87,0.9-1.31,1.94-1.31,3.12v56.44c0,1.31,0.39,2.38,1.17,3.22
			c0.78,0.84,1.79,1.26,3.03,1.26c1.31,0,2.35-0.42,3.12-1.26c0.78-0.84,1.17-1.91,1.17-3.22V33.33l18.19,28.26
			c0.43,0.56,0.98,1.03,1.63,1.4c0.65,0.37,1.29,0.53,1.91,0.47c0.68,0.06,1.35-0.09,2-0.47c0.65-0.37,1.2-0.84,1.63-1.4l18.1-27.43
			v43.19c0,1.31,0.43,2.38,1.31,3.22c0.87,0.84,1.99,1.26,3.36,1.26c1.37,0,2.47-0.43,3.31-1.31c0.84-0.87,1.26-1.93,1.26-3.17
			V20.93C398.7,19.68,398.26,18.64,397.39,17.8z"/>
		<linearGradient id="SVGID_1_" gradientUnits="userSpaceOnUse" x1="0" y1="49.3299" x2="398.6982" y2="49.3299">
			<stop  offset="0" style="stop-color:#0D8A95"/>
			<stop  offset="0.0248" style="stop-color:#0D8A95;stop-opacity:0"/>
			<stop  offset="1" style="stop-color:#0D8A95"/>
		</linearGradient>
		<path class="st1" d="M51.49,71.67c0.75,0.93,1.12,1.93,1.12,2.99c0,0.75-0.2,1.45-0.61,2.1c-0.41,0.65-0.95,1.17-1.63,1.54
			c-2.42,1.37-5.15,2.46-8.16,3.26c-3.02,0.81-5.99,1.21-8.91,1.21c-6.03,0-11.58-1.34-16.65-4.01C11.58,76.09,7.54,72.2,4.52,67.1
			C1.51,62,0,56.03,0,49.19c0-6.28,1.45-11.95,4.34-17.02c2.89-5.07,6.87-9.05,11.94-11.94c5.07-2.89,10.74-4.34,17.02-4.34
			c6.03,0,11.69,1.49,16.98,4.48c1.49,0.81,2.24,2.05,2.24,3.73c0,1.12-0.37,2.15-1.12,3.08c-0.75,1-1.77,1.49-3.08,1.49
			c-0.87,0-1.71-0.22-2.52-0.65c-3.86-2.18-8.02-3.26-12.5-3.26c-4.66,0-8.78,1.03-12.36,3.08c-3.58,2.05-6.36,4.93-8.35,8.63
			c-1.99,3.7-2.99,7.94-2.99,12.73c0,5.16,1.03,9.61,3.08,13.34c2.05,3.73,4.88,6.58,8.49,8.54C24.78,73.02,28.82,74,33.3,74
			c4.6,0,8.77-1.12,12.5-3.36c0.75-0.37,1.55-0.56,2.42-0.56C49.59,70.09,50.68,70.61,51.49,71.67z M113.43,76.06
			c0.19,0.56,0.28,1.15,0.28,1.77c0,1.24-0.42,2.27-1.26,3.08c-0.84,0.81-1.82,1.21-2.94,1.21c-0.87,0-1.66-0.27-2.38-0.79
			c-0.72-0.53-1.29-1.26-1.73-2.19l-5.78-13.71H70.8l-5.69,13.81c-0.31,0.93-0.83,1.65-1.54,2.15s-1.51,0.75-2.38,0.75
			c-1.31,0-2.3-0.34-2.99-1.03c-0.68-0.68-1.03-1.62-1.03-2.8c0-0.25,0.06-0.75,0.19-1.49l23.79-57.65
			c0.43-0.99,1.04-1.76,1.82-2.29c0.78-0.53,1.66-0.73,2.66-0.61c0.93,0,1.77,0.25,2.52,0.75c0.75,0.5,1.27,1.21,1.59,2.15
			L113.43,76.06z M96.08,56.93L85.16,30.81L74.34,56.93H96.08z M165.06,26.43c1.65,3.05,2.47,6.41,2.47,10.07
			c0,3.67-0.83,7.06-2.47,10.17c-1.65,3.11-3.87,5.57-6.67,7.37c-2.8,1.81-5.85,2.71-9.14,2.71h-17.54v20.62
			c0,1.25-0.41,2.3-1.21,3.17c-0.81,0.87-1.83,1.31-3.08,1.31c-1.31,0-2.35-0.42-3.12-1.26c-0.78-0.84-1.17-1.91-1.17-3.22V21.02
			c0-1.24,0.43-2.3,1.31-3.17c0.87-0.87,1.93-1.31,3.17-1.31h21.64c3.29,0,6.34,0.89,9.14,2.66
			C161.19,20.97,163.41,23.38,165.06,26.43z M158.58,36.5c0-3.17-0.92-5.86-2.75-8.07c-1.83-2.21-4.03-3.31-6.58-3.31h-17.54v23.13
			h17.54c1.68,0,3.23-0.54,4.66-1.63c1.43-1.09,2.57-2.53,3.4-4.34C158.16,40.48,158.58,38.56,158.58,36.5z M223.59,70.09
			c-0.87,0-1.68,0.19-2.42,0.56c-3.73,2.24-7.9,3.36-12.5,3.36c-4.48,0-8.52-0.98-12.13-2.94c-3.61-1.96-6.44-4.8-8.49-8.54
			c-2.05-3.73-3.08-8.18-3.08-13.34c0-4.79,0.99-9.03,2.99-12.73c1.99-3.7,4.77-6.58,8.35-8.63c3.58-2.05,7.7-3.08,12.36-3.08
			c4.48,0,8.64,1.09,12.5,3.26c0.81,0.44,1.65,0.65,2.52,0.65c1.31,0,2.33-0.5,3.08-1.49c0.75-0.93,1.12-1.96,1.12-3.08
			c0-1.68-0.75-2.92-2.24-3.73c-5.29-2.98-10.95-4.48-16.98-4.48c-6.28,0-11.96,1.45-17.02,4.34c-5.07,2.89-9.05,6.87-11.94,11.94
			c-2.89,5.07-4.34,10.74-4.34,17.02c0,6.84,1.51,12.81,4.52,17.91c3.02,5.1,7.06,8.99,12.13,11.66c5.07,2.67,10.62,4.01,16.65,4.01
			c2.92,0,5.89-0.41,8.91-1.21c3.02-0.81,5.74-1.9,8.16-3.26c0.68-0.37,1.23-0.89,1.63-1.54c0.4-0.65,0.61-1.35,0.61-2.1
			c0-1.06-0.37-2.05-1.12-2.99C226.05,70.61,224.96,70.09,223.59,70.09z M243.27,16.54c-1.37,0-2.49,0.44-3.36,1.31
			c-0.87,0.87-1.31,1.93-1.31,3.17v56.25c0,1.31,0.42,2.39,1.26,3.26c0.84,0.87,1.94,1.31,3.31,1.31c1.24,0,2.33-0.43,3.26-1.31
			c0.93-0.87,1.4-1.96,1.4-3.26V21.02c0-1.24-0.45-2.3-1.35-3.17C245.59,16.98,244.52,16.54,243.27,16.54z M397.39,17.8
			c-0.87-0.84-1.93-1.29-3.17-1.35c-1.49,0-2.74,0.68-3.73,2.05L368.1,51.99L345.99,18.5c-0.44-0.62-1.01-1.12-1.73-1.49
			s-1.45-0.56-2.19-0.56c-1.31,0-2.4,0.45-3.27,1.35c-0.87,0.9-1.31,1.94-1.31,3.12v56.44c0,1.31,0.39,2.38,1.17,3.22
			c0.78,0.84,1.79,1.26,3.03,1.26c1.31,0,2.35-0.42,3.12-1.26c0.78-0.84,1.17-1.91,1.17-3.22V33.33l18.19,28.26
			c0.43,0.56,0.98,1.03,1.63,1.4c0.65,0.37,1.29,0.53,1.91,0.47c0.68,0.06,1.35-0.09,2-0.47c0.65-0.37,1.2-0.84,1.63-1.4l18.1-27.43
			v43.19c0,1.31,0.43,2.38,1.31,3.22c0.87,0.84,1.99,1.26,3.36,1.26c1.37,0,2.47-0.43,3.31-1.31c0.84-0.87,1.26-1.93,1.26-3.17
			V20.93C398.7,19.68,398.26,18.64,397.39,17.8z"/>
	</g>
	<g>
		<path class="st2" d="M433.86,79.27c0.17,0.17,0.25,0.37,0.25,0.62c0,0.26-0.08,0.47-0.24,0.63c-0.16,0.16-0.37,0.24-0.63,0.24
			h-17.86c-0.26,0-0.47-0.08-0.63-0.25c-0.16-0.17-0.24-0.38-0.24-0.64c0-0.24,0.08-0.45,0.25-0.62s0.37-0.25,0.62-0.25h17.86
			C433.49,79.01,433.7,79.11,433.86,79.27z"/>
		<path class="st2" d="M414.74,48.46c0.15-0.14,0.34-0.21,0.56-0.21h17.92c0.28,0,0.5,0.08,0.66,0.25c0.16,0.17,0.24,0.37,0.24,0.62
			c0,0.13-0.03,0.26-0.08,0.38s-0.12,0.22-0.2,0.29L417.65,61.8h15.71c0.21,0,0.38,0.08,0.53,0.24c0.15,0.16,0.22,0.34,0.22,0.55
			c0,0.22-0.07,0.41-0.22,0.56c-0.15,0.15-0.33,0.22-0.53,0.22h-18c-0.26,0-0.47-0.08-0.62-0.24c-0.15-0.16-0.22-0.35-0.22-0.57
			c0-0.3,0.1-0.52,0.31-0.67l16.27-12.07H415.3c-0.22,0-0.41-0.08-0.56-0.22s-0.22-0.34-0.22-0.56
			C414.52,48.79,414.59,48.6,414.74,48.46z"/>
		<path class="st2" d="M416.67,17.87c0.17,0,0.35,0.07,0.56,0.2c0.21,0.17,0.31,0.38,0.31,0.64c0,0.15-0.05,0.3-0.14,0.45
			c-0.99,1.49-1.48,3.13-1.48,4.9c0,1.51,0.36,2.88,1.06,4.1c0.71,1.22,1.7,2.18,2.98,2.88c1.28,0.7,2.73,1.05,4.35,1.05
			c1.66,0,3.13-0.35,4.41-1.06c1.28-0.71,2.27-1.67,2.97-2.9s1.05-2.58,1.05-4.07c0-1.77-0.49-3.4-1.46-4.87
			c-0.09-0.15-0.14-0.31-0.14-0.48c0-0.26,0.11-0.48,0.34-0.64c0.15-0.13,0.33-0.2,0.53-0.2c0.3,0,0.52,0.13,0.67,0.39
			c0.49,0.73,0.89,1.62,1.22,2.69c0.33,1.06,0.49,2.1,0.49,3.11c0,1.77-0.42,3.41-1.27,4.91c-0.85,1.5-2.04,2.7-3.57,3.58
			c-1.53,0.89-3.28,1.33-5.24,1.33c-1.89,0-3.6-0.44-5.14-1.32c-1.54-0.88-2.74-2.06-3.61-3.56s-1.3-3.15-1.3-4.96
			c0-1.04,0.15-2.07,0.45-3.07c0.3-1,0.72-1.9,1.26-2.7C416.14,18.01,416.37,17.87,416.67,17.87z"/>
	</g>
	<g>
		<path class="st3" d="M318.69,0c-2.52,0-4.57,2.05-4.57,4.57v18.15l-42.73,19.93v-26.6c0-2.52-2.05-4.57-4.57-4.57
			s-4.57,2.05-4.57,4.57v37.21c0,16.82,13.69,30.51,30.51,30.51s30.51-13.69,30.51-30.51V4.57C323.27,2.05,321.22,0,318.69,0z
			 M314.12,27.13v5.52l-42.73,19.93v-5.52L314.12,27.13z M292.76,74.62c-10.55,0-19.32-7.7-21.04-17.77l42.41-19.77v16.18
			C314.12,65.03,304.54,74.62,292.76,74.62z"/>
		<linearGradient id="SVGID_2_" gradientUnits="userSpaceOnUse" x1="266.8083" y1="8.2064" x2="325.0269" y2="66.657">
			<stop  offset="0" style="stop-color:#F38C00;stop-opacity:0"/>
			<stop  offset="1" style="stop-color:#F38C00"/>
		</linearGradient>
		<path class="st4" d="M318.69,0c-2.52,0-4.57,2.05-4.57,4.57v18.15l-42.73,19.93v-26.6c0-2.52-2.05-4.57-4.57-4.57
			s-4.57,2.05-4.57,4.57v37.21c0,16.82,13.69,30.51,30.51,30.51s30.51-13.69,30.51-30.51V4.57C323.27,2.05,321.22,0,318.69,0z
			 M314.12,27.13v5.52l-42.73,19.93v-5.52L314.12,27.13z M292.76,74.62c-10.55,0-19.32-7.7-21.04-17.77l42.41-19.77v16.18
			C314.12,65.03,304.54,74.62,292.76,74.62z"/>
	</g>
</g>
</svg>
