<?xml version="1.0" encoding="utf-8"?>
<!-- Generator: Adobe Illustrator 23.0.1, SVG Export Plug-In . SVG Version: 6.00 Build 0)  -->
<svg version="1.1" id="Layer_1" xmlns="http://www.w3.org/2000/svg" xmlns:xlink="http://www.w3.org/1999/xlink" x="0px" y="0px"
	 viewBox="0 0 1800.5 525.37" style="enable-background:new 0 0 1800.5 525.37;" xml:space="preserve">
<style type="text/css">
	.st0{opacity:0.02;}
	.st1{fill:#FFFFFF;}
</style>
<g>
	<g class="st0">
		<path class="st1" d="M1800,433.93c-82.06,68.77-179.9,19.2-243-78.55c-71-110-126-130-248,0s-192,126-303,10s-147-136-223-77
			s-120,132-258-51s-190-311-278-190C164.71,160.52,106.91,434.53,0,348.63v176.74h1800V433.93z"/>
	</g>
	<g class="st0">
		<path class="st1" d="M1800.5,525.37H0.5v-297.5c39.84,6.25,90.57,31.44,158,85c141,112,259,50,372,8s237-48,386,43s242,52,360-14
			s185-39,267,38c75.93,71.3,151.02,117.73,257,87.68V525.37z"/>
	</g>
</g>
</svg>
