<?xml version="1.0" encoding="utf-8"?>
<!-- Generator: Adobe Illustrator 23.0.1, SVG Export Plug-In . SVG Version: 6.00 Build 0)  -->
<svg version="1.1" id="Layer_1" xmlns="http://www.w3.org/2000/svg" xmlns:xlink="http://www.w3.org/1999/xlink" x="0px" y="0px"
	 viewBox="0 0 2500 120" style="enable-background:new 0 0 2500 120;" xml:space="preserve">
<style type="text/css">
	.st0{fill:#FFFFFF;}
	.st1{opacity:0.5;fill:#FFFFFF;}
</style>
<g>
	<path class="st0" d="M2500,120H0V33.36C142.18,49.92,261.24,109.47,409,82c156-29,185-42,353-19s225,33,334-10s199-41,318,1
		s278,55,403,9s314-81,480-53c71.43,12.05,140.07,27.24,203,38.49V120z"/>
	<path class="st1" d="M2500,120H0V90.35c147.49,5,207.19-56.55,334-49.35c141,8,147,39,278,36S801,1,932,8s204,86,366,55
		s220-65,402-38s201,46,379,8c162.56-34.7,282.58,62.36,421,18.54V120z"/>
</g>
</svg>
