<?xml version="1.0" encoding="utf-8"?>
<!-- Generator: Adobe Illustrator 23.0.1, SVG Export Plug-In . SVG Version: 6.00 Build 0)  -->
<svg version="1.1" id="Layer_1" xmlns="http://www.w3.org/2000/svg" xmlns:xlink="http://www.w3.org/1999/xlink" x="0px" y="0px"
	 viewBox="0 0 2500 130" style="enable-background:new 0 0 2500 130;" xml:space="preserve">
<style type="text/css">
	.st0{fill:#FFFFFF;}
	.st1{opacity:0.5;fill:#FFFFFF;}
</style>
<g>
	<path class="st1" d="M2500,119.87c-39.82-5.82-90.55-14.37-152-26.87c-172-35-353,21-479,25s-298-40-433-40s-224,52-411,52
		S774,53,640,49s-171,56-294,56C192.03,105,176.53,52.79,0,74.09V0h2500V119.87z"/>
	<path class="st0" d="M0,0h2500v82.16c-30.93,2.52-63.19,7.37-94,15.84c-120,33-207,1-335-19s-157-16-241,6s-113,3-146-14
		s-39-27-115-20s-155,41-337,41c-200.5,0-309.5-77.5-540.5-37.5C554.5,78.5,525,98,354,67C230.62,44.63,120.26,51.42,0,67.08V0z"/>
</g>
</svg>
